HIERARCHY
ROOT Hips
{
    OFFSET   0.000000   0.000000   0.000000
    CHANNELS 6 Xposition Yposition Zposition Zrotation Xrotation Yrotation
    JOINT Chest
    {
        OFFSET   0.000000   8.007230   0.000000
        CHANNELS 3 Zrotation Xrotation Yrotation
        JOINT Chest2
        {
            OFFSET   0.000000  22.077100   0.000000
            CHANNELS 3 Zrotation Xrotation Yrotation
            JOINT Neck
            {
                OFFSET   0.000000  23.255100   0.000000
                CHANNELS 3 Zrotation Xrotation Yrotation
                JOINT Head
                {
                    OFFSET   0.000000  14.370100   1.956600
                    CHANNELS 3 Zrotation Xrotation Yrotation
                    End Site
                    {
                        OFFSET   0.000000  19.566000   0.000000
                    }
                }
            }
            JOINT LeftCollar
            {
                OFFSET   3.911900  19.017000  -0.467063
                CHANNELS 3 Zrotation Xrotation Yrotation
                JOINT LeftShoulder
                {
                    OFFSET  10.383700   0.000000   0.000000
                    CHANNELS 3 Zrotation Xrotation Yrotation
                    JOINT LeftElbow
                    {
                        OFFSET  26.662100   0.001193   0.000980
                        CHANNELS 3 Zrotation Xrotation Yrotation
                        JOINT LeftWrist
                        {
                            OFFSET  28.869000  -0.000059  -0.000082
                            CHANNELS 3 Zrotation Xrotation Yrotation
                            JOINT LeftFinger0
                            {
                                OFFSET   2.044650  -2.323450   3.252850
                                CHANNELS 3 Zrotation Xrotation Yrotation
                                JOINT LeftFinger01
                                {
                                    OFFSET   3.088130   0.000000   0.000000
                                    CHANNELS 3 Zrotation Xrotation Yrotation
                                    JOINT LeftFinger02
                                    {
                                        OFFSET   2.639460   0.000000   0.000000
                                        CHANNELS 3 Zrotation Xrotation Yrotation
                                        End Site
                                        {
                                            OFFSET   2.582190   0.000000   0.000000
                                        }
                                    }
                                }
                            }
                            JOINT LeftFinger1
                            {
                                OFFSET   8.364480   0.000000   3.252850
                                CHANNELS 3 Zrotation Xrotation Yrotation
                                JOINT LeftFinger11
                                {
                                    OFFSET   4.646930   0.000000   0.000000
                                    CHANNELS 3 Zrotation Xrotation Yrotation
                                    JOINT LeftFinger12
                                    {
                                        OFFSET   2.323470   0.000000   0.000000
                                        CHANNELS 3 Zrotation Xrotation Yrotation
                                        End Site
                                        {
                                            OFFSET   2.273050   0.000000   0.000000
                                        }
                                    }
                                }
                            }
                            JOINT LeftFinger2
                            {
                                OFFSET   8.364490   0.000016   1.078090
                                CHANNELS 3 Zrotation Xrotation Yrotation
                                JOINT LeftFinger21
                                {
                                    OFFSET   5.111610   0.000000   0.000000
                                    CHANNELS 3 Zrotation Xrotation Yrotation
                                    JOINT LeftFinger22
                                    {
                                        OFFSET   2.788150   0.000016   0.000000
                                        CHANNELS 3 Zrotation Xrotation Yrotation
                                        End Site
                                        {
                                            OFFSET   2.727660   0.000000   0.000000
                                        }
                                    }
                                }
                            }
                            JOINT LeftFinger3
                            {
                                OFFSET   7.899780   0.000015  -1.078090
                                CHANNELS 3 Zrotation Xrotation Yrotation
                                JOINT LeftFinger31
                                {
                                    OFFSET   4.646930   0.000000   0.000000
                                    CHANNELS 3 Zrotation Xrotation Yrotation
                                    JOINT LeftFinger32
                                    {
                                        OFFSET   2.323470   0.000000   0.000000
                                        CHANNELS 3 Zrotation Xrotation Yrotation
                                        End Site
                                        {
                                            OFFSET   2.273050   0.000000   0.000000
                                        }
                                    }
                                }
                            }
                            JOINT LeftFinger4
                            {
                                OFFSET   7.435090   0.000000  -3.252850
                                CHANNELS 3 Zrotation Xrotation Yrotation
                                JOINT LeftFinger41
                                {
                                    OFFSET   3.717550   0.000000   0.000000
                                    CHANNELS 3 Zrotation Xrotation Yrotation
                                    JOINT LeftFinger42
                                    {
                                        OFFSET   1.858770   0.000000   0.000000
                                        CHANNELS 3 Zrotation Xrotation Yrotation
                                        End Site
                                        {
                                            OFFSET   1.818440   0.000000   0.000000
                                        }
                                    }
                                }
                            }
                        }
                    }
                }
            }
            JOINT RightCollar
            {
                OFFSET  -3.911910  19.017000  -0.467062
                CHANNELS 3 Zrotation Xrotation Yrotation
                JOINT RightShoulder
                {
                    OFFSET -10.383700   0.000014   0.000000
                    CHANNELS 3 Zrotation Xrotation Yrotation
                    JOINT RightElbow
                    {
                        OFFSET -26.662100   0.001225   0.001091
                        CHANNELS 3 Zrotation Xrotation Yrotation
                        JOINT RightWrist
                        {
                            OFFSET -28.869000  -0.000020  -0.000085
                            CHANNELS 3 Zrotation Xrotation Yrotation
                            JOINT RightFinger0
                            {
                                OFFSET  -2.044650  -2.323490   3.252850
                                CHANNELS 3 Zrotation Xrotation Yrotation
                                JOINT RightFinger01
                                {
                                    OFFSET  -3.088130   0.000000   0.000000
                                    CHANNELS 3 Zrotation Xrotation Yrotation
                                    JOINT RightFinger02
                                    {
                                        OFFSET  -2.639460   0.000000   0.000000
                                        CHANNELS 3 Zrotation Xrotation Yrotation
                                        End Site
                                        {
                                            OFFSET  -2.582190   0.000000   0.000000
                                        }
                                    }
                                }
                            }
                            JOINT RightFinger1
                            {
                                OFFSET  -8.364480   0.000000   3.252850
                                CHANNELS 3 Zrotation Xrotation Yrotation
                                JOINT RightFinger11
                                {
                                    OFFSET  -4.646930   0.000000   0.000000
                                    CHANNELS 3 Zrotation Xrotation Yrotation
                                    JOINT RightFinger12
                                    {
                                        OFFSET  -2.323470   0.000000   0.000000
                                        CHANNELS 3 Zrotation Xrotation Yrotation
                                        End Site
                                        {
                                            OFFSET  -2.273050   0.000000   0.000000
                                        }
                                    }
                                }
                            }
                            JOINT RightFinger2
                            {
                                OFFSET  -8.364480   0.000000   1.078090
                                CHANNELS 3 Zrotation Xrotation Yrotation
                                JOINT RightFinger21
                                {
                                    OFFSET  -5.111620   0.000000   0.000000
                                    CHANNELS 3 Zrotation Xrotation Yrotation
                                    JOINT RightFinger22
                                    {
                                        OFFSET  -2.788160   0.000000   0.000000
                                        CHANNELS 3 Zrotation Xrotation Yrotation
                                        End Site
                                        {
                                            OFFSET  -2.727660   0.000000   0.000000
                                        }
                                    }
                                }
                            }
                            JOINT RightFinger3
                            {
                                OFFSET  -7.899780   0.000000  -1.078090
                                CHANNELS 3 Zrotation Xrotation Yrotation
                                JOINT RightFinger31
                                {
                                    OFFSET  -4.646930   0.000000   0.000000
                                    CHANNELS 3 Zrotation Xrotation Yrotation
                                    JOINT RightFinger32
                                    {
                                        OFFSET  -2.323470   0.000000   0.000000
                                        CHANNELS 3 Zrotation Xrotation Yrotation
                                        End Site
                                        {
                                            OFFSET  -2.273050   0.000000   0.000000
                                        }
                                    }
                                }
                            }
                            JOINT RightFinger4
                            {
                                OFFSET  -7.435090   0.000000  -3.252850
                                CHANNELS 3 Zrotation Xrotation Yrotation
                                JOINT RightFinger41
                                {
                                    OFFSET  -3.717550   0.000000   0.000000
                                    CHANNELS 3 Zrotation Xrotation Yrotation
                                    JOINT RightFinger42
                                    {
                                        OFFSET  -1.858760   0.000000   0.000000
                                        CHANNELS 3 Zrotation Xrotation Yrotation
                                        End Site
                                        {
                                            OFFSET  -1.818440   0.000000   0.000000
                                        }
                                    }
                                }
                            }
                        }
                    }
                }
            }
        }
    }
    JOINT LeftHip
    {
        OFFSET   9.783030   0.000000   0.000000
        CHANNELS 3 Zrotation Xrotation Yrotation
        JOINT LeftKnee
        {
            OFFSET   0.000063 -41.789100   0.000608
            CHANNELS 3 Zrotation Xrotation Yrotation
            JOINT LeftAnkle
            {
                OFFSET   0.000048 -41.133200  -0.000184
                CHANNELS 3 Zrotation Xrotation Yrotation
                JOINT LeftToe
                {
                    OFFSET   0.000000  -6.358960  14.674500
                    CHANNELS 3 Zrotation Xrotation Yrotation
                    End Site
                    {
                        OFFSET   0.000000   0.000000   3.913200
                    }
                }
            }
        }
    }
    JOINT RightHip
    {
        OFFSET  -9.783030   0.000000   0.000000
        CHANNELS 3 Zrotation Xrotation Yrotation
        JOINT RightKnee
        {
            OFFSET   0.000071 -41.789100   0.001239
            CHANNELS 3 Zrotation Xrotation Yrotation
            JOINT RightAnkle
            {
                OFFSET   0.000037 -41.133200  -0.000166
                CHANNELS 3 Zrotation Xrotation Yrotation
                JOINT RightToe
                {
                    OFFSET   0.000000  -6.358960  14.674500
                    CHANNELS 3 Zrotation Xrotation Yrotation
                    End Site
                    {
                        OFFSET   0.000000   0.000000   3.913200
                    }
                }
            }
        }
    }
}
MOTION
Frames: 4
Frame Time:   0.016667
  0.310367  89.598800  -0.392866  -3.253870 -10.495000  -3.402710   0.360233   6.427760   0.100083   0.715918  12.856100   0.160731   1.102800  -0.304885  -0.001399   1.812110  -0.617372   4.468800  -6.358810  -2.337890  -1.544910 -70.219000  18.961700   1.300000  -1.411600  -7.408170 -20.787000  21.084200 -16.661500   9.964390  38.709700  34.765300 -65.393800 -33.756200   0.003820   0.002605 -11.878100   0.001853   0.003663 -32.610000   4.451540  -6.917520 -26.901500   0.000000  -0.000893 -18.831100  -0.000161   0.000586 -28.622700  -2.602520   4.757760 -39.528600   0.000345   0.004835 -26.326000   0.004469  -0.005411 -28.492700  -2.591750   4.763640 -37.293700   0.001497   0.001936 -24.837600   0.000906   0.000422 -32.142400  -2.890830   4.588730 -48.387600  -0.004668   0.000917 -32.226200   0.001334   0.001546  12.578100  -1.186310   8.618690  69.510800  13.561700  -5.107010  -2.612260  -6.200440  16.286900 -14.786700  -6.550610   2.052040 -36.521100  29.163700  61.231300  32.563000   0.003510  -0.002210  11.281500   0.001988   0.000982  32.958600   7.090340  10.778500  27.514100   0.001028  -0.001371  19.259900   0.006056  -0.000627  28.757500   1.516930   2.761830  42.034400   0.009316   0.000439  27.994900   0.003601  -0.002711  28.620800   0.431994   0.791511  37.743300  -0.009737   0.003546  25.137000  -0.000219   0.002327  37.435400  -0.363882  -0.475537  56.155500  -0.002831   0.008321  37.399600   0.003522   0.003207   1.754990  12.148000   3.615620   1.290940   0.039412   3.308930  -0.240560  -2.784910   2.095690  -0.000000   0.000000  -0.000000   4.961410  10.103300  -4.555360  -1.660850   3.824910  -7.642200  -0.569138  -4.837220  -0.695766   0.000000   0.000000   0.000000
  0.307015  89.598700  -0.410191  -3.254060 -10.515900  -3.393180   0.366564   6.450770   0.107437   0.727869  12.902100   0.174708   1.097420  -0.305383  -0.001390   1.803240  -0.618450   4.438730  -6.345910  -2.369930  -1.558930 -70.279000  19.040300   1.350220  -1.384950  -7.444920 -20.941200  21.064300 -16.794900  10.071200  38.540600  34.510000 -65.154300 -33.777400   0.003818   0.002617 -11.888700   0.001850   0.003658 -32.646000   4.389950  -6.815760 -26.924300   0.000000  -0.000891 -18.847000  -0.000158   0.000598 -28.614300  -2.652200   4.849190 -39.529200   0.000416   0.004840 -26.326500   0.004467  -0.005425 -28.484300  -2.641170   4.855160 -37.291700   0.001505   0.001934 -24.836200   0.000910   0.000424 -32.180300  -2.949210   4.674470 -48.450700  -0.004666   0.000920 -32.268200   0.001337   0.001549  12.597600  -1.230120   8.628900  69.502600  13.722500  -5.088430  -2.656140  -6.198110  16.318700 -14.738900  -6.572220   1.967630 -36.485300  29.095600  61.165600  32.580400   0.003511  -0.002209  11.290300   0.001987   0.000974  32.937300   7.068800  10.755400  27.493800   0.001019  -0.001372  19.245700   0.006048  -0.000626  28.757700   1.514660   2.757830  41.958700   0.009319   0.000438  27.944400   0.003584  -0.002716  28.616200   0.430755   0.789389  37.678400  -0.009733   0.003557  25.093800  -0.000228   0.002321  37.392000  -0.352588  -0.461380  56.090200  -0.002836   0.008325  37.356100   0.003513   0.003163   1.761270  12.149400   3.614540   1.291180   0.048419   3.305590  -0.245538  -2.777890   2.087220   0.000000   0.000000   0.000000   4.968620  10.104100  -4.555360  -1.662240   3.851020  -7.642780  -0.570819  -4.838490  -0.712545  -0.000000   0.000000   0.000000
  0.301545  89.598500  -0.438336  -3.257170 -10.561400  -3.379200   0.376893   6.498180   0.117636   0.747556  12.997000   0.193814   1.087220  -0.308874  -0.001370   1.786420  -0.625845   4.408670  -6.323710  -2.424890  -1.580020 -70.379400  19.159600   1.469490  -1.354860  -7.531550 -21.342900  21.041600 -17.102600  10.321000  38.301900  34.088200 -64.769100 -33.798500   0.003816   0.002628 -11.899300   0.001844   0.003651 -32.696300   4.317440  -6.689130 -26.958000   0.000000  -0.000887 -18.870600  -0.000142   0.000631 -28.605800  -2.701870   4.940630 -39.529900   0.000535   0.004851 -26.326900   0.004461  -0.005464 -28.475800  -2.690580   4.946690 -37.277500   0.001524   0.001930 -24.826800   0.000922   0.000430 -32.218000  -3.007570   4.760230 -48.513900  -0.004663   0.000926 -32.310200   0.001343   0.001557  12.622800  -1.310770   8.646230  69.470300  14.010000  -5.054390  -2.763040  -6.183780  16.477200 -14.637900  -6.722010   1.733280 -36.418800  28.958800  61.051000  32.597900   0.003513  -0.002207  11.299000   0.001982   0.000955  32.916000   7.047250  10.732300  27.473500   0.001001  -0.001377  19.231500   0.006031  -0.000625  28.757900   1.512390   2.753830  41.821100   0.009328   0.000432  27.852800   0.003541  -0.002726  28.609700   0.429516   0.787266  37.580900  -0.009724   0.003585  25.028900  -0.000248   0.002304  37.324600  -0.334979  -0.439370  55.988800  -0.002847   0.008339  37.288600   0.003489   0.003073   1.774440  12.159100   3.609500   1.291420   0.069762   3.302250  -0.253888  -2.770870   2.072750  -0.000000   0.000000  -0.000000   4.983530  10.109400  -4.555360  -1.666450   3.896520  -7.645650  -0.573213  -4.842910  -0.737285  -0.000000   0.000000   0.000000
  0.297490  89.598400  -0.458928  -3.264800 -10.617300  -3.370650   0.385091   6.552150   0.120976   0.763728  13.105000   0.199257   1.075690  -0.318176  -0.001345   1.767420  -0.644920   4.409550  -6.307550  -2.473160  -1.594220 -70.463900  19.243900   1.643250  -1.366640  -7.673100 -21.936800  21.042500 -17.526500  10.684600  38.209400  33.778700 -64.452300 -33.706900   0.003818   0.002627 -11.853500   0.001835   0.003645 -32.716300   4.304750  -6.660090 -26.973900   0.000000  -0.000882 -18.881700  -0.000099   0.000686 -28.604900  -2.696900   4.931780 -39.484500   0.000652   0.004868 -26.296700   0.004455  -0.005525 -28.468100  -2.685420   4.937930 -37.154300   0.001553   0.001923 -24.744800   0.000939   0.000438 -32.180900  -3.000900   4.752330 -48.456700  -0.004660   0.000932 -32.272100   0.001353   0.001568  12.631100  -1.388800   8.664390  69.410600  14.287800  -5.022820  -2.960510  -5.986730  16.790800 -14.520200  -7.126910   1.321320 -36.326900  28.795400  60.938600  32.592200   0.003497  -0.002160  11.296200   0.001971   0.000926  32.962600   7.056040  10.741300  27.509000   0.000978  -0.001387  19.256300   0.006005  -0.000625  28.757300   1.518410   2.764890  41.696600   0.009346   0.000416  27.769900   0.003477  -0.002740  28.606500   0.457903   0.839461  37.532900  -0.009710   0.003629  24.996900  -0.000275   0.002272  37.283600  -0.324109  -0.425960  55.927100  -0.002864   0.008366  37.247500   0.003450   0.002953   1.790050  12.187200   3.597730   1.291040   0.110102   3.311850  -0.260936  -2.783190   2.059340  -0.000000   0.000000   0.000000   5.000890  10.130400  -4.548980  -1.673050   3.937310  -7.659330  -0.572847  -4.851620  -0.749374  -0.000000   0.000000   0.000000
